<?xml version="1.0" encoding="UTF-8"?>
<svg width="200mm" height="69.589mm" version="1.1" viewBox="0 0 200 69.589" xmlns="http://www.w3.org/2000/svg" xmlns:cc="http://creativecommons.org/ns#" xmlns:dc="http://purl.org/dc/elements/1.1/" xmlns:rdf="http://www.w3.org/1999/02/22-rdf-syntax-ns#">
 <defs>
  <filter id="filter1186" x="-.00026525" y="-.00076245" width="1.0005" height="1.0015" color-interpolation-filters="sRGB">
   <feGaussianBlur stdDeviation="0.0036471799"/>
  </filter>
 </defs>
 <metadata>
  <rdf:RDF>
   <cc:Work rdf:about="">
    <dc:format>image/svg+xml</dc:format>
    <dc:type rdf:resource="http://purl.org/dc/dcmitype/StillImage"/>
    <dc:title/>
   </cc:Work>
  </rdf:RDF>
 </metadata>
 <g transform="translate(-461.14 16.918)">
  <text x="-1604.5408" y="290.1622" fill="#000000" font-family="sans-serif" font-size="64.11px" stroke-width=".26458" style="line-height:1.25" xml:space="preserve"><tspan x="-1604.5408" y="290.1622" stroke-width=".26458"/></text>
  <g fill="#fff">
   <rect transform="matrix(5.9173 0 0 6.0579 -1917 -824.68)" x="418.84" y="139.43" width="16.84" height=".35" filter="url(#filter1186)" style="paint-order:stroke fill markers"/>
   <rect transform="matrix(5.9173 0 0 6.0579 -1917 -824.68)" x="401.9" y="139.43" width="15.947" height=".35" filter="url(#filter1186)" style="paint-order:stroke fill markers"/>
   <rect transform="matrix(6.0574 0 0 6.0579 -2332.4 85.452)" x="461.19" y="-9.4144" width="33" height="4" filter="url(#filter1186)" style="paint-order:stroke fill markers"/>
  </g>
  <text transform="matrix(6.0574 0 0 6.0579 -2332.4 85.452)" x="460.88245" y="-11.966346" fill="#ffffff" filter="url(#filter1186)" font-family="sans-serif" font-size="6.9415px" stroke-linejoin="round" stroke-opacity="0" stroke-width=".5555" style="line-height:1.25;paint-order:stroke fill markers" xml:space="preserve"><tspan x="460.88245" y="-11.966346" fill="#ffffff" font-family="Montserrat" font-weight="600" stroke-linejoin="round" stroke-opacity="0" stroke-width=".5555" style="paint-order:stroke fill markers">CALUMIX</tspan></text>
  <g fill="#fff">
   <rect transform="matrix(5.9173 0 0 6.0579 -1917 -829.43)" x="433.56" y="140.91" width="2.1267" height=".35" filter="url(#filter1186)" style="paint-order:stroke fill markers"/>
   <rect transform="matrix(5.9173 0 0 6.0579 -1917 -829.43)" x="411.08" y="140.91" width="21.498" height=".35" filter="url(#filter1186)" style="paint-order:stroke fill markers"/>
   <rect transform="matrix(5.9173 0 0 6.0579 -1917 -829.43)" x="401.9" y="140.91" width="8.202" height=".35" filter="url(#filter1186)" style="paint-order:stroke fill markers"/>
   <rect transform="matrix(5.9174 0 0 6.0579 -1917 -823.9)" x="427.48" y="138.6" width="8.202" height=".35" filter="url(#filter1186)" style="paint-order:stroke fill markers"/>
   <rect transform="matrix(5.9174 0 0 6.0579 -1917 -823.9)" x="404.95" y="138.6" width="21.553" height=".35" filter="url(#filter1186)" style="paint-order:stroke fill markers"/>
   <rect transform="matrix(5.9174 0 0 6.0579 -1917 -823.9)" x="401.9" y="138.6" width="2.057" height=".35" filter="url(#filter1186)" style="paint-order:stroke fill markers"/>
  </g>
 </g>
</svg>
